<svg xmlns="http://www.w3.org/2000/svg" xmlns:xlink="http://www.w3.org/1999/xlink" xmlns:fi="http://pattern.flaticon.com/" x="0" y="0" width="200" height="100" viewBox="0 0 700 350"><rect x="0px" y="0px" width="100%" height="100%" opacity="1" fill="#ffffff"/><defs><g transform="matrix(0.1171875 0 0 0.1171875 165 152)" id="L1_45"><path d="M506.555,208.064L263.859,30.367c-4.68-3.426-11.038-3.426-15.716,0L5.445,208.064    c-5.928,4.341-7.216,12.665-2.875,18.593s12.666,7.214,18.593,2.875L256,57.588l234.837,171.943c2.368,1.735,5.12,2.57,7.848,2.57    c4.096,0,8.138-1.885,10.744-5.445C513.771,220.729,512.483,212.405,506.555,208.064z"/><path d="M442.246,232.543c-7.346,0-13.303,5.956-13.303,13.303v211.749H322.521V342.009c0-36.68-29.842-66.52-66.52-66.52    s-66.52,29.842-66.52,66.52v115.587H83.058V245.847c0-7.347-5.957-13.303-13.303-13.303s-13.303,5.956-13.303,13.303v225.053    c0,7.347,5.957,13.303,13.303,13.303h133.029c6.996,0,12.721-5.405,13.251-12.267c0.032-0.311,0.052-0.651,0.052-1.036v-128.89    c0-22.009,17.905-39.914,39.914-39.914s39.914,17.906,39.914,39.914v128.89c0,0.383,0.02,0.717,0.052,1.024    c0.524,6.867,6.251,12.279,13.251,12.279h133.029c7.347,0,13.303-5.956,13.303-13.303V245.847    C455.549,238.499,449.593,232.543,442.246,232.543z"/></g><g transform="matrix(0.1171875 0 0 0.1171875 113 3)" id="L1_46"><path d="M256,0C156.748,0,76,80.748,76,180c0,33.534,9.289,66.26,26.869,94.652l142.885,230.257    c2.737,4.411,7.559,7.091,12.745,7.091c0.04,0,0.079,0,0.119,0c5.231-0.041,10.063-2.804,12.75-7.292L410.611,272.22    C427.221,244.428,436,212.539,436,180C436,80.748,355.252,0,256,0z M384.866,256.818L258.272,468.186l-129.905-209.34    C113.734,235.214,105.8,207.95,105.8,180c0-82.71,67.49-150.2,150.2-150.2S406.1,97.29,406.1,180    C406.1,207.121,398.689,233.688,384.866,256.818z"/><path d="M256,90c-49.626,0-90,40.374-90,90c0,49.309,39.717,90,90,90c50.903,0,90-41.233,90-90C346,130.374,305.626,90,256,90z     M256,240.2c-33.257,0-60.2-27.033-60.2-60.2c0-33.084,27.116-60.2,60.2-60.2s60.1,27.116,60.1,60.2    C316.1,212.683,289.784,240.2,256,240.2z"/></g><path d="M240.135,0.05C144.085,0.036,57.277,57.289,19.472,145.586l-2.992,0.992l1.16,3.48    c-49.776,122.766,9.393,262.639,132.159,312.415c28.673,11.626,59.324,17.594,90.265,17.577    c132.548,0.02,240.016-107.416,240.036-239.964S372.684,0.069,240.135,0.05z M428.388,361.054l-12.324-12.316V320.05    c0.014-1.238-0.26-2.462-0.8-3.576l-31.2-62.312V224.05c0-2.674-1.335-5.172-3.56-6.656l-24-16    c-1.881-1.256-4.206-1.657-6.4-1.104l-29.392,7.344l-49.368-21.184l-6.792-47.584l18.824-18.816h40.408l13.6,20.44    c1.228,1.838,3.163,3.087,5.344,3.448l48,8c1.286,0.216,2.604,0.111,3.84-0.304l44.208-14.736    C475.855,208.053,471.889,293.634,428.388,361.054z M395.392,78.882l-13.008,8.672l-36.264-7.256l-23.528-7.832    c-1.44-0.489-2.99-0.551-4.464-0.176l-29.744,7.432l-13.04-4.344l9.664-19.328h27.056c1.241,0.001,2.465-0.286,3.576-0.84    l27.68-13.84C362.382,51.32,379.918,63.952,395.392,78.882z M152.44,33.914l19.2,12.8c0.944,0.628,2.01,1.048,3.128,1.232    l38.768,6.464l-3.784,11.32l-20.2,6.744c-1.809,0.602-3.344,1.83-4.328,3.464l-22.976,38.288l-36.904,22.144l-54.4,7.768    c-3.943,0.557-6.875,3.93-6.88,7.912v24c0,2.122,0.844,4.156,2.344,5.656l13.656,13.656v13.744l-33.28-22.192l-12.072-36.216    C57.68,98.218,99.777,56.458,152.44,33.914z M129.664,296.21l-36.16-7.24l-13.44-26.808v-18.8l29.808-29.808l11.032,22.072    c1.355,2.712,4.128,4.425,7.16,4.424h51.472l21.672,36.12c1.446,2.407,4.048,3.879,6.856,3.88h22.24l-5.6,28.056l-30.288,30.288    c-1.503,1.499-2.349,3.533-2.352,5.656v20l-28.8,21.6c-2.014,1.511-3.2,3.882-3.2,6.4v28.896l-9.952-3.296l-14.048-35.136V304.05    C136.065,300.248,133.389,296.97,129.664,296.21z M105.616,419.191C30.187,362.602-1.712,264.826,25.832,174.642l6.648,19.936    c0.56,1.687,1.666,3.14,3.144,4.128l39.88,26.584l-9.096,9.104c-1.5,1.5-2.344,3.534-2.344,5.656v24    c-0.001,1.241,0.286,2.465,0.84,3.576l16,32c1.108,2.21,3.175,3.784,5.6,4.264l33.6,6.712v73.448    c-0.001,1.016,0.192,2.024,0.568,2.968l16,40c0.876,2.185,2.67,3.874,4.904,4.616l24,8c0.802,0.272,1.642,0.412,2.488,0.416    c4.418,0,8-3.582,8-8v-36l28.8-21.6c2.014-1.511,3.2-3.882,3.2-6.4v-20.688l29.656-29.656c1.115-1.117,1.875-2.54,2.184-4.088    l8-40c0.866-4.333-1.944-8.547-6.277-9.413c-0.515-0.103-1.038-0.155-1.563-0.155h-27.472l-21.672-36.12    c-1.446-2.407-4.048-3.879-6.856-3.88h-51.056l-13.744-27.576c-1.151-2.302-3.339-3.91-5.88-4.32    c-2.54-0.439-5.133,0.399-6.936,2.24l-10.384,10.344V192.05c0-2.122-0.844-4.156-2.344-5.656l-13.656-13.656v-13.752l49.136-7.016    c1.055-0.153,2.07-0.515,2.984-1.064l40-24c1.122-0.674,2.062-1.614,2.736-2.736l22.48-37.464l21.192-7.072    c2.393-0.785,4.271-2.662,5.056-5.056l8-24c1.386-4.195-0.891-8.72-5.086-10.106c-0.387-0.128-0.784-0.226-1.186-0.294    l-46.304-7.72l-8.136-5.424c50.343-16.386,104.869-14.358,153.856,5.72l-14.616,7.296h-30.112c-3.047-0.017-5.838,1.699-7.2,4.424    l-16,32c-1.971,3.954-0.364,8.758,3.59,10.729c0.337,0.168,0.685,0.312,1.042,0.431l24,8c1.44,0.489,2.99,0.551,4.464,0.176    l29.744-7.432l21.792,7.256c0.312,0.112,0.633,0.198,0.96,0.256l40,8c2.08,0.424,4.244-0.002,6.008-1.184l18.208-12.144    c8.961,9.981,17.014,20.741,24.064,32.152l-39.36,13.12l-42.616-7.104l-14.08-21.12c-1.476-2.213-3.956-3.547-6.616-3.56h-48    c-2.122,0-4.156,0.844-5.656,2.344l-24,24c-1.782,1.781-2.621,4.298-2.264,6.792l8,56c0.403,2.769,2.223,5.126,4.8,6.216l56,24    c1.604,0.695,3.394,0.838,5.088,0.408l28.568-7.144l17.464,11.664v27.72c-0.014,1.238,0.26,2.462,0.8,3.576l31.2,62.312v30.112    c0,2.122,0.844,4.156,2.344,5.656l16.736,16.744C344.921,473.383,204.549,493.415,105.616,419.191z" transform="matrix(0.12497396022081375 0 0 0.12497396022081375 333 29)" id="L1_48"/><path d="m85.085938 304.40625c-6.144532 2.882812-8.855469 10.140625-6.117188 16.34375l28.066406 60.25c1.378906 3 3.894532 5.335938 6.988282 6.488281 1.355468.492188 2.792968.746094 4.238281.746094 1.808593.015625 3.59375-.371094 5.238281-1.117187l212.054688-99.046876-19.207032 200.824219c-.371094 3.953125 1.152344 7.839844 4.109375 10.480469 9.296875 7.695312 20.882813 12.078125 32.9375 12.472656 3.324219-.003906 6.628907-.421875 9.851563-1.242187 17.214844-4.492188 30.5625-19.832031 39.667968-46.03125l83.449219-247.101563 165.273438-77.09375c48.648437-22.699218 73.71875-68.726562 56.882812-104.652344-9.554687-18.777343-27.855469-31.550781-48.773437-34.054687-23.242188-3.507813-46.996094.148437-68.105469 10.484375l-190.726563 89.433594-205.0625-80.207032c-25.824218-9.726562-46.277343-9.476562-60.621093.878907-12.035157 9.875-18.882813 24.71875-18.589844 40.285156.125 3.949219 2.113281 7.601563 5.363281 9.859375l138.082032 94.921875-79.078126 37.421875-132.601562-33.683594c-5.433594-1.335937-11.089844 1.113282-13.84375 5.988282l-33.050781 59.496093c-1.714844 3.152344-1.984375 6.894531-.738281 10.261719 1.238281 3.371094 3.871093 6.039062 7.226562 7.328125l98.167969 40.542969zm57.121093-248.09375c.734375-5.273438 3.402344-10.074219 7.488281-13.472656 7.113282-5.117188 20.085938-4.367188 37.421876 2.117187l182.617187 71.226563-83.328125 38.917968zm-112.257812 180.117188 21.703125-38.542969 127.605468 31.679687c2.75.695313 5.652344.433594 8.238282-.742187l414.75-193.71875c16.488281-8.132813 35.058594-11.09375 53.261718-8.484375 12.765626 1.175781 24.136719 8.542968 30.4375 19.707031 10.46875 22.457031-10.109374 55.261719-44.914062 71.476563l-143.695312 67.363281 8.734374-25.828125c2.207032-6.644532-1.398437-13.824219-8.042968-16.027344-6.652344-2.203125-13.828125 1.402344-16.03125 8.046875l-102.660156 305.476563c-6.113282 17.34375-13.722657 27.699218-22.203126 29.9375-5.253906 1.011718-10.691406-.019532-15.21875-2.863282l24.949219-261.953125c.652344-6.886719-4.398437-13-11.292969-13.652343-6.886718-.660157-13 4.398437-13.65625 11.285156l-3.863281 40.039062-214.054687 99.789063-17.578125-37.421875 35.167969-16.460938c4.527343-1.996094 7.445312-6.472656 7.445312-11.414062 0-4.945313-2.917969-9.421875-7.445312-11.414063zm0 0" transform="matrix(0.08406282216310501 0 0 0.08406282216310501 347 224)" id="L1_49"/><g transform="matrix(0.1171875 0 0 0.1171875 239 274)" id="L1_53"><path d="M402,166c-5.52,0-10,4.48-10,10s4.48,10,10,10c5.52,0,10-4.48,10-10S407.52,166,402,166z"/><path d="M482,126H372.18l-31.706-63.413C335.357,52.356,325.075,46,313.64,46H198.36c-11.437,0-21.719,6.356-26.834,16.588    L139.82,126H120v-10c0-16.542-13.458-30-30-30H70c-16.542,0-30,13.458-30,30v10H30c-16.542,0-30,13.458-30,30    c0,27.175,0,269.429,0,280c0,16.542,13.458,30,30,30h452c16.542,0,30-13.458,30-30c0-27.175,0-269.429,0-280    C512,139.458,498.542,126,482,126z M189.415,71.532C191.121,68.12,194.548,66,198.36,66h115.28c3.812,0,7.24,2.12,8.946,5.532    L349.82,126H162.18L189.415,71.532z M60,116c0-5.514,4.486-10,10-10h20c5.514,0,10,4.486,10,10v10H60V116z M20,225.9h126.451    C133.161,246.661,126,270.992,126,296c0,25.01,7.162,49.243,20.45,70H20V225.9z M256,186c60.133,0,110,48.719,110,110    c0,61.212-49.797,110-110,110c-60.257,0-110-48.842-110-110C146,234.795,195.79,186,256,186z M492,436c0,5.514-4.486,10-10,10H30    c-5.514,0-10-4.486-10-10v-50h142.226c24.435,25.472,58.349,40,93.774,40c35.431,0,69.348-14.532,93.775-40H492V436z M492,366    H365.549C378.839,345.239,386,321.009,386,296c0-25.009-7.161-49.239-20.451-70H492V366z M492,206H349.774    c-24.434-25.472-58.348-40-93.774-40c-35.43,0-69.347,14.532-93.775,40H20v-50c0-5.514,4.486-10,10-10c9.081,0,437.942,0,452,0    c5.514,0,10,4.486,10,10V206z"/><path d="M286,86h-60c-5.523,0-10,4.477-10,10s4.477,10,10,10h60c5.522,0,10-4.477,10-10S291.522,86,286,86z"/><path d="M256,206c-49.626,0-90,40.374-90,90c0,49.626,40.374,90,90,90c49.626,0,90-40.374,90-90C346,246.374,305.626,206,256,206z     M256,366c-38.598,0-70-31.402-70-70c0-38.598,31.402-70,70-70s70,31.402,70,70C326,334.598,294.598,366,256,366z"/><path d="M256,246c-27.57,0-50,22.43-50,50c0,5.523,4.477,10,10,10s10-4.477,10-10c0-16.542,13.458-30,30-30    c5.522,0,10-4.477,10-10S261.522,246,256,246z"/><path d="M462,166h-20c-5.522,0-10,4.477-10,10s4.478,10,10,10h20c5.522,0,10-4.477,10-10S467.522,166,462,166z"/></g></defs><g fi:class="KUsePattern"><pattern id="pattern_L1_45" width="350" height="350" patternUnits="userSpaceOnUse"><use xlink:href="#L1_45" x="-350" y="-350"/><use xlink:href="#L1_45" x="0" y="-350"/><use xlink:href="#L1_45" x="350" y="-350"/><use xlink:href="#L1_45" x="-350" y="0"/><use xlink:href="#L1_45" x="0" y="0"/><use xlink:href="#L1_45" x="350" y="0"/><use xlink:href="#L1_45" x="-350" y="350"/><use xlink:href="#L1_45" x="0" y="350"/><use xlink:href="#L1_45" x="350" y="350"/></pattern><rect x="0" y="0" width="100%" height="100%" fill="url(#pattern_L1_45)"/></g><g fi:class="KUsePattern"><pattern id="pattern_L1_46" width="350" height="350" patternUnits="userSpaceOnUse"><use xlink:href="#L1_46" x="-350" y="-350"/><use xlink:href="#L1_46" x="0" y="-350"/><use xlink:href="#L1_46" x="350" y="-350"/><use xlink:href="#L1_46" x="-350" y="0"/><use xlink:href="#L1_46" x="0" y="0"/><use xlink:href="#L1_46" x="350" y="0"/><use xlink:href="#L1_46" x="-350" y="350"/><use xlink:href="#L1_46" x="0" y="350"/><use xlink:href="#L1_46" x="350" y="350"/></pattern><rect x="0" y="0" width="100%" height="100%" fill="url(#pattern_L1_46)"/></g><g fi:class="KUsePattern"><pattern id="pattern_L1_48" width="350" height="350" patternUnits="userSpaceOnUse"><use xlink:href="#L1_48" x="-350" y="-350"/><use xlink:href="#L1_48" x="0" y="-350"/><use xlink:href="#L1_48" x="350" y="-350"/><use xlink:href="#L1_48" x="-350" y="0"/><use xlink:href="#L1_48" x="0" y="0"/><use xlink:href="#L1_48" x="350" y="0"/><use xlink:href="#L1_48" x="-350" y="350"/><use xlink:href="#L1_48" x="0" y="350"/><use xlink:href="#L1_48" x="350" y="350"/></pattern><rect x="0" y="0" width="100%" height="100%" fill="url(#pattern_L1_48)"/></g><g fi:class="KUsePattern"><pattern id="pattern_L1_49" width="350" height="350" patternUnits="userSpaceOnUse"><use xlink:href="#L1_49" x="-350" y="-350"/><use xlink:href="#L1_49" x="0" y="-350"/><use xlink:href="#L1_49" x="350" y="-350"/><use xlink:href="#L1_49" x="-350" y="0"/><use xlink:href="#L1_49" x="0" y="0"/><use xlink:href="#L1_49" x="350" y="0"/><use xlink:href="#L1_49" x="-350" y="350"/><use xlink:href="#L1_49" x="0" y="350"/><use xlink:href="#L1_49" x="350" y="350"/></pattern><rect x="0" y="0" width="100%" height="100%" fill="url(#pattern_L1_49)"/></g><g fi:class="KUsePattern"><pattern id="pattern_L1_53" width="350" height="350" patternUnits="userSpaceOnUse"><use xlink:href="#L1_53" x="-350" y="-350"/><use xlink:href="#L1_53" x="0" y="-350"/><use xlink:href="#L1_53" x="350" y="-350"/><use xlink:href="#L1_53" x="-350" y="0"/><use xlink:href="#L1_53" x="0" y="0"/><use xlink:href="#L1_53" x="350" y="0"/><use xlink:href="#L1_53" x="-350" y="350"/><use xlink:href="#L1_53" x="0" y="350"/><use xlink:href="#L1_53" x="350" y="350"/></pattern><rect x="0" y="0" width="100%" height="100%" fill="url(#pattern_L1_53)"/></g></svg>